<svg width="20.000000" height="20.000000" viewBox="0 0 20 20" fill="none" xmlns="http://www.w3.org/2000/svg" xmlns:xlink="http://www.w3.org/1999/xlink">
	<desc>
			Created with Pixso.
	</desc>
	<defs>
		<clipPath id="clip1_378">
			<rect id="Frame" width="20.000000" height="20.000000" fill="white" fill-opacity="0"/>
		</clipPath>
	</defs>
	<rect id="Frame" width="20.000000" height="20.000000" fill="#FFFFFF" fill-opacity="0"/>
	<g clip-path="url(#clip1_378)">
		<path id="Vector" d="M16.2916 12.1333C16.2794 12.235 16.2301 12.3285 16.1532 12.3962C16.0764 12.4638 15.9773 12.5007 15.875 12.5L14.1666 12.5C14.0562 12.5 13.9502 12.5439 13.8719 12.622C13.7939 12.7002 13.75 12.8062 13.75 12.9167L13.75 19.5833C13.75 19.6938 13.7939 19.7998 13.8719 19.878C13.9502 19.9561 14.0562 20 14.1666 20L19.1666 20C19.3877 20 19.5996 19.9122 19.7559 19.7559C19.9121 19.5997 20 19.3877 20 19.1667L20 0.833336C20 0.61232 19.9121 0.40036 19.7559 0.24408C19.5996 0.0877991 19.3877 0 19.1666 0L0.833374 0C0.612305 0 0.400391 0.0877991 0.244019 0.24408C0.0877686 0.40036 0 0.61232 0 0.833336L0 19.1667C0 19.3877 0.0877686 19.5997 0.244019 19.7559C0.400391 19.9122 0.612305 20 0.833374 20L10 20C10.1105 20 10.2166 19.9561 10.2947 19.878C10.3728 19.7998 10.4166 19.6938 10.4166 19.5833L10.4166 12.9167C10.4166 12.8062 10.3728 12.7002 10.2947 12.622C10.2166 12.5439 10.1105 12.5 10 12.5L8.33337 12.5C8.22278 12.5 8.11682 12.4561 8.0387 12.378C7.96057 12.2998 7.91663 12.1938 7.91663 12.0833L7.91663 9.58334C7.91663 9.47283 7.96057 9.36684 8.0387 9.28867C8.11682 9.21059 8.22278 9.16666 8.33337 9.16666L10 9.16666C10.1105 9.16666 10.2166 9.12275 10.2947 9.04466C10.3728 8.9665 10.4166 8.8605 10.4166 8.75L10.4166 7.65833C10.4166 6.40076 10.9163 5.1947 11.8055 4.30547C12.6947 3.41624 13.9008 2.91666 15.1583 2.91666L16.25 2.91666C16.3605 2.91666 16.4666 2.96056 16.5447 3.03871C16.6228 3.11684 16.6666 3.22282 16.6666 3.33334L16.6666 5.83334C16.6666 5.94384 16.6228 6.04983 16.5447 6.12796C16.4666 6.2061 16.3605 6.25 16.25 6.25L15.1583 6.25C14.7848 6.25 14.4266 6.39838 14.1625 6.66249C13.8984 6.92661 13.75 7.28481 13.75 7.65833L13.75 8.75C13.75 8.8605 13.7939 8.9665 13.8719 9.04466C13.9502 9.12275 14.0562 9.16666 14.1666 9.16666L16.1917 9.16666C16.2509 9.16625 16.3094 9.17842 16.3635 9.20242C16.4177 9.22642 16.4661 9.26167 16.5055 9.30583C16.5449 9.35 16.5745 9.402 16.5922 9.4585C16.6099 9.515 16.6154 9.57458 16.6083 9.63333L16.2916 12.1333Z" fill="#FFFFFF" fill-opacity="1.000000" fill-rule="nonzero"/>
	</g>
</svg>
