<svg width="20.000000" height="20.000000" viewBox="0 0 20 20" fill="none" xmlns="http://www.w3.org/2000/svg" xmlns:xlink="http://www.w3.org/1999/xlink">
	<desc>
			Created with Pixso.
	</desc>
	<defs>
		<clipPath id="clip1_382">
			<rect id="Frame" width="20.000000" height="20.000000" fill="white" fill-opacity="0"/>
		</clipPath>
	</defs>
	<rect id="Frame" width="20.000000" height="20.000000" fill="#FFFFFF" fill-opacity="0"/>
	<g clip-path="url(#clip1_382)">
		<path id="Vector" d="M14.5834 0L5.41663 0C3.98071 0.0022049 2.60425 0.573593 1.58899 1.58894C0.573608 2.60429 0.00219727 3.98076 0 5.41666L0 14.5833C0.00219727 16.0192 0.573608 17.3958 1.58899 18.4111C2.60425 19.4264 3.98071 19.9978 5.41663 20L14.5834 20C16.0193 19.9978 17.3958 19.4264 18.4111 18.4111C19.4264 17.3958 19.9978 16.0192 20 14.5833L20 5.41666C19.9978 3.98076 19.4264 2.60429 18.4111 1.58894C17.3958 0.573593 16.0193 0.0022049 14.5834 0ZM10 14.5833C9.09351 14.5833 8.2074 14.3145 7.45361 13.8109C6.69995 13.3073 6.11243 12.5915 5.7655 11.754C5.4187 10.9165 5.32788 9.99492 5.50476 9.10583C5.68164 8.21676 6.11804 7.40009 6.75903 6.75909C7.40002 6.1181 8.2168 5.68158 9.10583 5.50473C9.99487 5.32788 10.9165 5.41865 11.754 5.76555C12.5916 6.11245 13.3073 6.69991 13.8109 7.45364C14.3145 8.20736 14.5834 9.0935 14.5834 10C14.5834 11.2156 14.1005 12.3813 13.241 13.2409C12.3813 14.1004 11.2156 14.5833 10 14.5833ZM15.4166 5.41666C15.1694 5.41666 14.9277 5.34336 14.7222 5.206C14.5167 5.06865 14.3564 4.87343 14.2618 4.64503C14.1672 4.41662 14.1425 4.16528 14.1907 3.9228C14.2389 3.68033 14.358 3.4576 14.5327 3.28278C14.7076 3.10796 14.9303 2.98891 15.1729 2.94068C15.4153 2.89245 15.6666 2.91721 15.895 3.01182C16.1234 3.10642 16.3187 3.26664 16.4561 3.4722C16.5934 3.67776 16.6666 3.91944 16.6666 4.16666C16.6666 4.49818 16.535 4.81613 16.3005 5.05055C16.0662 5.28497 15.7482 5.41666 15.4166 5.41666Z" fill="#FFFFFF" fill-opacity="1.000000" fill-rule="nonzero"/>
	</g>
</svg>
