<svg width="20.000000" height="20.000000" viewBox="0 0 20 20" fill="none" xmlns="http://www.w3.org/2000/svg" xmlns:xlink="http://www.w3.org/1999/xlink">
	<desc>
			Created with Pixso.
	</desc>
	<defs>
		<clipPath id="clip1_386">
			<rect id="Frame" width="20.000000" height="20.000000" fill="white" fill-opacity="0"/>
		</clipPath>
	</defs>
	<rect id="Frame" width="20.000000" height="20.000000" fill="#FFFFFF" fill-opacity="0"/>
	<g clip-path="url(#clip1_386)">
		<path id="Vector" d="M19.4333 5.36666C19.4927 5.31738 19.5371 5.25259 19.5618 5.17955C19.5864 5.1065 19.5903 5.02803 19.5731 4.95288C19.5558 4.87774 19.5179 4.80885 19.4639 4.75391C19.4098 4.69897 19.3416 4.66011 19.2666 4.64166L18.6083 4.475C18.5485 4.46001 18.4927 4.43192 18.4449 4.39274C18.3973 4.35356 18.359 4.3043 18.3326 4.24848C18.3063 4.19267 18.2927 4.1317 18.2928 4.06999C18.293 4.00828 18.3068 3.94737 18.3334 3.89166L18.7 3.15C18.7346 3.07813 18.7479 2.99783 18.7383 2.91863C18.7285 2.83944 18.6964 2.76468 18.6455 2.70325C18.5946 2.64182 18.5271 2.59629 18.451 2.57208C18.3751 2.54787 18.2937 2.54599 18.2167 2.56667L16.5499 3.03333C16.4879 3.05144 16.4224 3.05485 16.3588 3.04327C16.2952 3.03171 16.2351 3.00547 16.1833 2.96667C15.462 2.42574 14.585 2.13333 13.6833 2.13333C12.5782 2.13333 11.5184 2.57231 10.7371 3.35371C9.95569 4.13512 9.5166 5.19493 9.5166 6.3L9.5166 6.6C9.51709 6.65118 9.49854 6.70071 9.46472 6.73913C9.43091 6.77756 9.38416 6.80219 9.33337 6.80833C6.9917 7.08333 4.75 5.89166 2.33337 3.10833C2.28088 3.05043 2.21338 3.00813 2.13843 2.98608C2.06348 2.96402 1.98376 2.96307 1.90833 2.98333C1.84033 3.01459 1.78198 3.06358 1.7395 3.12518C1.6969 3.18676 1.67175 3.25867 1.66663 3.33333C1.33289 4.70444 1.46777 6.14785 2.05005 7.43333C2.06726 7.46742 2.07471 7.5056 2.07178 7.54368C2.06873 7.58176 2.0553 7.61828 2.03296 7.64925C2.01062 7.68021 1.9801 7.70444 1.94495 7.71926C1.90967 7.7341 1.87109 7.73897 1.83337 7.73333L0.900024 7.55C0.83374 7.53934 0.765869 7.54486 0.702148 7.56607C0.638428 7.5873 0.580811 7.62359 0.53418 7.67188C0.487549 7.72015 0.453247 7.77899 0.434204 7.84338C0.415283 7.90776 0.412109 7.97579 0.425049 8.04166C0.496948 8.68117 0.711792 9.29633 1.05371 9.84167C1.39551 10.3869 1.85571 10.8483 2.40002 11.1917C2.43518 11.2087 2.46497 11.2353 2.48572 11.2685C2.50647 11.3017 2.51758 11.34 2.51758 11.3792C2.51758 11.4183 2.50647 11.4567 2.48572 11.4898C2.46497 11.523 2.43518 11.5496 2.40002 11.5667L1.95837 11.7417C1.90466 11.7632 1.85608 11.7956 1.81567 11.8369C1.77527 11.8782 1.7439 11.9274 1.72351 11.9815C1.70312 12.0356 1.69421 12.0932 1.69727 12.151C1.70044 12.2087 1.71558 12.2651 1.7417 12.3167C1.98596 12.8511 2.35608 13.3183 2.82056 13.6782C3.28503 14.0382 3.82983 14.2802 4.40833 14.3833C4.44849 14.3979 4.48328 14.4246 4.50781 14.4596C4.53247 14.4947 4.54553 14.5364 4.54553 14.5792C4.54553 14.6219 4.53247 14.6637 4.50781 14.6987C4.48328 14.7337 4.44849 14.7604 4.40833 14.775C3.27527 15.2436 2.05933 15.4788 0.833374 15.4667C0.722778 15.4446 0.608032 15.4672 0.514282 15.5297C0.420532 15.5922 0.355469 15.6895 0.333374 15.8C0.311279 15.9105 0.333984 16.0253 0.396484 16.119C0.458984 16.2128 0.556152 16.2779 0.666626 16.3C2.78955 17.3068 5.10095 17.8549 7.44995 17.9083C9.51624 17.9398 11.5457 17.36 13.2833 16.2417C14.7126 15.2875 15.8838 13.9946 16.6921 12.4781C17.5006 10.9615 17.9213 9.2685 17.9166 7.55L17.9166 6.825C17.9171 6.76449 17.9308 6.70482 17.9568 6.65013C17.9827 6.59544 18.0201 6.54706 18.0667 6.50833L19.4333 5.36666Z" fill="#FFFFFF" fill-opacity="1.000000" fill-rule="nonzero"/>
	</g>
</svg>
