<?xml version="1.0" standalone="no"?>
<!DOCTYPE svg PUBLIC "-//W3C//DTD SVG 20010904//EN"
 "http://www.w3.org/TR/2001/REC-SVG-20010904/DTD/svg10.dtd">
<svg version="1.0" xmlns="http://www.w3.org/2000/svg"
 width="700.000000pt" height="700.000000pt" viewBox="0 0 700.000000 700.000000"
 preserveAspectRatio="xMidYMid meet">
<metadata>
Created by potrace 1.14, written by Peter Selinger 2001-2017
</metadata>
<g transform="translate(0.000000,700.000000) scale(0.100000,-0.100000)"
fill="#000000" stroke="none">
<path d="M4727 6254 c-1 -1 -32 -4 -70 -8 -37 -3 -77 -8 -90 -11 -12 -2 -35
-7 -52 -9 -163 -26 -371 -111 -531 -217 -94 -62 -103 -70 -207 -169 -218 -209
-372 -493 -421 -780 -3 -19 -8 -46 -11 -60 -3 -14 -8 -90 -11 -170 -6 -174 -8
-181 -34 -198 -53 -33 -401 -35 -565 -3 -47 9 -44 8 -93 17 -20 3 -84 20 -142
36 -376 107 -778 347 -1155 688 -74 66 -361 355 -429 430 -129 144 -135 149
-183 156 -36 5 -54 2 -80 -12 -53 -28 -59 -46 -107 -299 -28 -145 -28 -532 0
-668 3 -16 7 -38 9 -50 17 -116 68 -295 126 -441 53 -132 53 -133 20 -167 -35
-34 -15 -36 -316 26 -103 21 -157 11 -202 -37 -19 -20 -46 -91 -38 -100 1 -2
6 -28 9 -58 4 -31 15 -91 26 -135 11 -44 23 -90 25 -103 11 -46 68 -180 116
-271 114 -214 304 -421 501 -546 49 -31 66 -64 53 -104 -8 -26 -35 -41 -129
-77 -92 -34 -130 -65 -145 -120 -14 -51 -3 -92 51 -186 96 -171 244 -336 391
-435 134 -91 335 -177 462 -199 75 -12 109 -74 68 -122 -24 -27 -286 -124
-423 -157 -148 -35 -191 -45 -220 -50 -31 -5 -96 -17 -110 -20 -3 -1 -36 -5
-75 -9 -38 -5 -79 -10 -90 -12 -27 -5 -228 -15 -347 -17 -80 -2 -101 -5 -124
-23 -63 -47 -84 -109 -57 -175 15 -38 64 -89 86 -89 6 0 30 -9 54 -20 57 -26
119 -54 166 -74 20 -9 52 -22 70 -30 176 -77 668 -240 789 -261 17 -3 34 -8
37 -10 7 -4 260 -61 307 -69 16 -3 70 -12 119 -21 50 -8 110 -18 135 -21 25
-2 52 -7 60 -9 8 -2 42 -7 75 -10 33 -3 74 -8 90 -10 272 -35 728 -40 965 -10
199 25 412 67 560 110 30 9 71 20 91 25 76 20 301 104 419 158 142 64 165 75
263 128 188 102 416 258 559 382 228 196 433 416 594 637 298 409 531 925 623
1385 6 30 14 66 16 80 9 43 34 203 39 250 5 41 10 92 21 230 2 25 4 149 4 276
1 223 2 232 24 265 20 30 57 64 206 187 318 265 329 274 342 309 18 46 12 103
-16 139 -34 45 -49 52 -184 85 -170 43 -204 60 -226 114 -22 57 -14 88 63 245
84 171 93 212 60 271 -36 65 -103 87 -187 63 -61 -17 -302 -84 -321 -89 -8 -2
-73 -20 -143 -40 -90 -26 -138 -34 -160 -30 -18 4 -70 33 -117 64 -102 68
-178 109 -283 150 -76 31 -225 73 -297 85 -54 9 -297 25 -303 20z"/>
</g>
</svg>
